<?xml version="1.0" encoding="utf-8"?>

<!DOCTYPE svg PUBLIC "-//W3C//DTD SVG 1.1//EN" "http://www.w3.org/Graphics/SVG/1.1/DTD/svg11.dtd">
<!-- Uploaded to: SVG Repo, www.svgrepo.com, Generator: SVG Repo Mixer Tools -->
<svg height="800px" width="800px" version="1.1" id="_x32_" xmlns="http://www.w3.org/2000/svg" xmlns:xlink="http://www.w3.org/1999/xlink" 
	 viewBox="0 0 512 512"  xml:space="preserve">
<style type="text/css">
	.st0{fill:#fde6f8;}
</style>
<g>
	<path class="st0" d="M255.999,211.985c37.626-18.9,63.912-61.844,63.912-111.832c0-33.478-11.803-63.797-30.9-85.857
		c-2.084-2.411-8.258-4.256-12.188,3.393c-3.93,7.656-14.752,26.883-14.752,26.883c-1.315,2.39-3.61,3.842-6.072,3.842
		c-2.47,0-4.766-1.453-6.072-3.842c0,0-10.83-19.227-14.76-26.883c-3.923-7.649-10.096-5.804-12.181-3.393
		c-19.096,22.06-30.9,52.379-30.9,85.857C192.086,150.142,218.365,193.085,255.999,211.985z"/>
	<path class="st0" d="M199.03,253.373c-6.342-41.628-39.064-79.9-86.605-95.35c-31.844-10.337-64.32-8.484-91.203,2.862
		c-2.942,1.242-6.595,6.537-0.53,12.639c6.065,6.101,21,22.336,21,22.336c1.866,1.99,2.542,4.627,1.779,6.966
		c-0.762,2.347-2.855,4.083-5.535,4.591c0,0-21.631,4.359-30.116,5.724c-8.498,1.373-8.644,7.809-7.002,10.547
		c15.08,24.972,40.27,45.572,72.107,55.916C120.466,295.046,169.43,283.314,199.03,253.373z"/>
	<path class="st0" d="M103.352,373.246c-19.677,27.08-27.95,58.553-25.466,87.622c0.276,3.181,4.176,8.302,11.854,4.417
		c7.678-3.886,27.732-13.075,27.732-13.075c2.47-1.169,5.172-0.988,7.177,0.458c1.99,1.46,3,3.98,2.651,6.682
		c0,0-2.542,21.915-3.864,30.413c-1.315,8.506,4.765,10.634,7.866,9.908c28.416-6.617,55.792-24.203,75.462-51.289
		c29.382-40.437,33.355-90.636,14.019-128.044C179.243,313.51,132.726,332.802,103.352,373.246z"/>
	<path class="st0" d="M291.206,320.338c-19.337,37.408-15.356,87.607,14.026,128.044c19.678,27.086,47.047,44.672,75.462,51.289
		c3.109,0.727,9.189-1.402,7.859-9.908c-1.314-8.498-3.864-30.413-3.864-30.413c-0.334-2.702,0.669-5.23,2.658-6.682
		c2.006-1.446,4.708-1.627,7.177-0.458c0,0,20.055,9.189,27.74,13.068c7.67,3.893,11.578-1.228,11.846-4.409
		c2.478-29.069-5.782-60.542-25.466-87.622C379.263,332.802,332.754,313.51,291.206,320.338z"/>
	<path class="st0" d="M504.177,213.14c-8.491-1.365-30.122-5.724-30.122-5.724c-2.673-0.508-4.766-2.244-5.52-4.591
		c-0.763-2.353-0.102-4.975,1.772-6.966c0,0,14.934-16.234,21.006-22.336c6.065-6.102,2.397-11.397-0.545-12.639
		c-26.868-11.346-59.358-13.205-91.202-2.862c-47.534,15.45-80.256,53.722-86.598,95.35c29.6,29.941,78.572,41.672,126.105,26.23
		c31.844-10.344,57.027-30.944,72.107-55.924C512.828,220.949,512.675,214.513,504.177,213.14z"/>
	<path class="st0" d="M255.991,287.999c-8.259,0-14.956,6.697-14.956,14.963c0,8.259,6.698,14.956,14.956,14.956
		c8.266,0,14.956-6.697,14.956-14.956C270.947,294.697,264.257,287.999,255.991,287.999z"/>
	<path class="st0" d="M284.567,293.069c7.859,2.55,16.3-1.743,18.849-9.602c2.556-7.859-1.743-16.3-9.603-18.856
		c-7.859-2.55-16.292,1.75-18.849,9.603C272.414,282.072,276.707,290.52,284.567,293.069z"/>
	<path class="st0" d="M264.417,231.023c-4.859,6.683-3.378,16.038,3.304,20.89c6.683,4.86,16.039,3.378,20.898-3.305
		c4.852-6.682,3.37-16.038-3.312-20.898C278.625,222.859,269.269,224.333,264.417,231.023z"/>
	<path class="st0" d="M226.689,227.711c-6.69,4.86-8.164,14.208-3.312,20.898c4.859,6.682,14.216,8.165,20.898,3.305
		c6.682-4.852,8.172-14.208,3.305-20.89C242.735,224.333,233.372,222.859,226.689,227.711z"/>
	<path class="st0" d="M218.176,264.611c-7.852,2.557-12.152,10.997-9.602,18.856c2.55,7.86,10.99,12.152,18.842,9.602
		c7.859-2.556,12.166-10.997,9.61-18.856C234.476,266.353,226.036,262.061,218.176,264.611z"/>
</g>
</svg>